<?xml version="1.0" encoding="UTF-8"?>
<svg width="24px" height="24px" viewBox="0 0 24 24" version="1.1" xmlns="http://www.w3.org/2000/svg" xmlns:xlink="http://www.w3.org/1999/xlink">
    <!-- Generator: Sketch 47.1 (45422) - http://www.bohemiancoding.com/sketch -->
    <title>archive copy</title>
    <desc>Created with Sketch.</desc>
    <defs></defs>
    <g id="Symbols" stroke="none" stroke-width="1" fill="none" fill-rule="evenodd" stroke-linecap="round" stroke-linejoin="round">
        <g id="archive-copy" stroke="#000000" stroke-width="2">
            <g transform="translate(3.000000, 2.000000)">
                <path d="M18,4.66666667 L18,18 C18,19.1045695 17.1045695,20 16,20 L2,20 C0.8954305,20 1.3527075e-16,19.1045695 0,18 L0,4.66666667 C-1.38526305e-15,4.23392624 0.140355744,3.81285901 0.4,3.46666667 L2.4,0.8 C2.77770876,0.296388315 3.37048539,1.15639957e-16 4,0 L14,1.33226763e-15 C14.6295146,-1.22586298e-15 15.2222912,0.296388315 15.6,0.8 L17.6,3.46666667 C17.8596443,3.81285901 18,4.23392624 18,4.66666667 Z" id="Combined-Shape"></path>
                <path d="M9,16 L9,8" id="Shape"></path>
                <polyline id="Shape" points="13 12 9 16 5 12"></polyline>
                <path d="M1,4 L17,4" id="Line-5"></path>
            </g>
        </g>
    </g>
</svg>