<?xml version="1.0" encoding="UTF-8"?>
<svg width="24px" height="24px" viewBox="0 0 24 24" version="1.1" xmlns="http://www.w3.org/2000/svg" xmlns:xlink="http://www.w3.org/1999/xlink">
    <!-- Generator: Sketch 47.1 (45422) - http://www.bohemiancoding.com/sketch -->
    <title>bell-2-off</title>
    <desc>Created with Sketch.</desc>
    <defs></defs>
    <g id="Symbols" stroke="none" stroke-width="1" fill="none" fill-rule="evenodd" stroke-linecap="round" stroke-linejoin="round">
        <g id="bell-2-off" stroke="#000000" stroke-width="2">
            <g transform="translate(1.000000, 1.000000)">
                <path d="M17.8800165,12 L17.2518832,7.44836412 C16.8209645,4.32580176 14.1521559,2 11,2 C10.1074071,2 9.25357613,2.18650624 8.47834941,2.52479479 M5.35808099,5.48119569 C5.0551242,6.08512487 4.84528947,6.74665133 4.74849432,7.44841621 L3.84835838,13.9744018 C3.63979938,15.4864545 2.49672731,16.7006545 1,17 C8.1105551,17 13.4438884,17 17,17" id="Combined-Shape"></path>
                <path d="M0,0 L22,22" id="Shape"></path>
                <circle id="Oval-2-Copy" fill="#000000" cx="11" cy="1" r="1"></circle>
                <path d="M9,21 C9.34580942,21.5978014 9.99215325,22 10.7324356,22 C11.472718,22 12.1190618,21.5978014 12.4648712,21 L9,21 Z" id="Combined-Shape"></path>
            </g>
        </g>
    </g>
</svg>