<?xml version="1.0" encoding="UTF-8"?>
<svg width="24px" height="24px" viewBox="0 0 24 24" version="1.1" xmlns="http://www.w3.org/2000/svg" xmlns:xlink="http://www.w3.org/1999/xlink">
    <!-- Generator: Sketch 47.1 (45422) - http://www.bohemiancoding.com/sketch -->
    <title>bell-2</title>
    <desc>Created with Sketch.</desc>
    <defs></defs>
    <g id="Symbols" stroke="none" stroke-width="1" fill="none" fill-rule="evenodd" stroke-linecap="round" stroke-linejoin="round">
        <g id="bell-2" stroke="#000000" stroke-width="2">
            <g transform="translate(2.000000, 1.000000)">
                <path d="M17.1516416,13.9744018 L16.2515057,7.44841621 L16.2515057,7.44841621 C15.8208107,4.32587775 13.1521016,2 10,2 L10,2 L10,2 C6.84789839,2 4.17918928,4.32587775 3.74849432,7.44841621 L2.84835838,13.9744018 L2.84835838,13.9744018 C2.63979938,15.4864545 1.49672731,16.7006545 0,17 L2.22044605e-16,17 L20,17 L20,17 L20,17 C18.5032727,16.7006545 17.3602006,15.4864545 17.1516416,13.9744018 Z" id="Combined-Shape"></path>
                <circle id="Oval-2-Copy" fill="#000000" cx="10" cy="1" r="1"></circle>
                <path d="M8,21 C8.34580942,21.5978014 8.99215325,22 9.73243561,22 C10.472718,22 11.1190618,21.5978014 11.4648712,21 L8,21 Z" id="Combined-Shape"></path>
            </g>
        </g>
    </g>
</svg>