<?xml version="1.0" encoding="UTF-8"?><svg id="Layer_2" xmlns="http://www.w3.org/2000/svg" width="24" height="24" viewBox="0 0 24 24"><path d="m15.85,22h-7.7c-1.73,0-3.15-1.42-3.15-3.15v-5.7c0-1.73,1.42-3.15,3.15-3.15h7.7c1.73,0,3.15,1.42,3.15,3.15v5.7c0,1.73-1.42,3.15-3.15,3.15Z" style="fill:none; stroke:#000; stroke-linecap:round; stroke-linejoin:round; stroke-width:2px;"/><path d="m5.01,12.76h-1.07c-1.05,0-1.91.86-1.91,1.91v2.64c0,1.05.86,1.91,1.91,1.91h1.08" style="fill:none; stroke:#000; stroke-linejoin:round; stroke-width:2px;"/><path d="m18.99,19.23h1.07c1.05,0,1.91-.86,1.91-1.91v-2.64c0-1.05-.86-1.91-1.91-1.91h-1.06" style="fill:none; stroke:#000; stroke-linejoin:round; stroke-width:2px;"/><line x1="12" y1="7" x2="12" y2="10" style="fill:none; stroke:#000; stroke-linejoin:round; stroke-width:2px;"/><circle cx="12" cy="5" r="2" style="fill:none; stroke:#000; stroke-linecap:round; stroke-linejoin:round; stroke-width:2px;"/><circle id="Oval" cx="9.5" cy="13.5" r=".5" style="fill:#161b1e; stroke:#161b1e; stroke-linecap:round; stroke-linejoin:round; stroke-width:2px;"/><circle id="Oval-2" cx="14.5" cy="13.5" r=".5" style="fill:#161b1e; stroke:#161b1e; stroke-linecap:round; stroke-linejoin:round; stroke-width:2px;"/></svg>