<?xml version="1.0" encoding="UTF-8"?>
<svg width="24px" height="24px" viewBox="0 0 24 24" version="1.1" xmlns="http://www.w3.org/2000/svg" xmlns:xlink="http://www.w3.org/1999/xlink">
    <!-- Generator: Sketch 47.1 (45422) - http://www.bohemiancoding.com/sketch -->
    <title>bullhorn</title>
    <desc>Created with Sketch.</desc>
    <defs></defs>
    <g id="Symbols" stroke="none" stroke-width="1" fill="none" fill-rule="evenodd" stroke-linecap="round">
        <g id="bullhorn" stroke="#000000" stroke-width="2">
            <g transform="translate(12.000000, 12.500000) rotate(-90.000000) translate(-12.000000, -12.500000) translate(2.500000, 3.500000)">
                <path d="M16,11.0446882 L18.4781818,15.1818182 C18.704319,15.5734361 18.7056691,16.0556389 18.4817286,16.4485171 C18.257788,16.8413953 17.8421924,17.085939 17.39,17.0909091 L6.61,17.0909091 C6.15780765,17.085939 5.74221198,16.8413953 5.51827142,16.4485171 C5.29433087,16.0556389 5.29568104,15.5734361 5.52181818,15.1818182 L8,11.0446882 L8,2 L8,2 C8,0.8954305 8.8954305,2.02906125e-16 10,0 L10,0 L14,0 C15.1045695,-2.02906125e-16 16,0.8954305 16,2 L16,11.0446882 Z" id="Combined-Shape" stroke-linejoin="round"></path>
                <path d="M12,7 L16,7" id="Line-3"></path>
                <path d="M7.78946848,3 L1.31650402,5.35596639 L1.31650402,5.35596639 C0.278548209,5.73375141 -0.256625956,6.88143611 0.121159062,7.91939192 L0.121159062,7.91939192 L0.121159062,7.91939192 C0.498944081,8.95734773 1.64662878,9.49252189 2.68458459,9.11473687 L7.78946848,7.25671109 L7.78946848,3 Z" id="Combined-Shape" stroke-linejoin="round"></path>
            </g>
        </g>
    </g>
</svg>