<?xml version="1.0" encoding="UTF-8"?>
<svg width="24px" height="24px" viewBox="0 0 24 24" version="1.1" xmlns="http://www.w3.org/2000/svg" xmlns:xlink="http://www.w3.org/1999/xlink">
    <!-- Generator: Sketch 47.1 (45422) - http://www.bohemiancoding.com/sketch -->
    <title>company</title>
    <desc>Created with Sketch.</desc>
    <defs></defs>
    <g id="Symbols" stroke="none" stroke-width="1" fill="none" fill-rule="evenodd" stroke-linecap="round">
        <g id="company" stroke="#000000" stroke-width="2">
            <g transform="translate(4.000000, 2.000000)">
                <polygon id="Stroke-1" stroke-linejoin="round" points="0 20 16 20 16 0 0 0"></polygon>
                <path d="M8.0002,20 L8.0002,16" id="Stroke-2" stroke-linejoin="round"></path>
                <path d="M12,16 L12,16" id="Path-2"></path>
                <path d="M4,16 L4,16" id="Path-2"></path>
                <path d="M8,12 L8,12" id="Path-2"></path>
                <path d="M12,12 L12,12" id="Path-2"></path>
                <path d="M4,12 L4,12" id="Path-2"></path>
                <path d="M8,8 L8,8" id="Path-2"></path>
                <path d="M12,8 L12,8" id="Path-2"></path>
                <path d="M4,8 L4,8" id="Path-2"></path>
                <path d="M8,4 L8,4" id="Path-2"></path>
                <path d="M12,4 L12,4" id="Path-2"></path>
                <path d="M4,4 L4,4" id="Path-2"></path>
            </g>
        </g>
    </g>
</svg>