<?xml version="1.0" encoding="UTF-8"?>
<svg id="Layer_2" xmlns="http://www.w3.org/2000/svg" version="1.1" viewBox="0 0 24 24">
  <!-- Generator: Adobe Illustrator 29.8.2, SVG Export Plug-In . SVG Version: 2.1.1 Build 3)  -->
  <path d="M12,2h-5.8c-.6,0-1.1.3-1.4.8M12,2h5.8c.6,0,1.1.3,1.4.8M12,2l-3.6,7.2M12,2l3.6,7.2M2,8.1l2.5-5.1c0,0,0-.2.2-.3M2,8.1c-.3.7-.3,1.5.2,2.1l9.8,11.9M2,8.1c-.3.6.3,1.1.9,1.1h5.5M12,22.1l9.8-11.9c.3-.3.4-.7.4-1.1M12,22.1l-3.6-12.9M12,22.1l3.6-12.9M8.4,9.2h0M8.4,9.2h0M8.4,9.2h0M8.4,9.2h7.2M15.6,9.2h0M15.6,9.2h0M15.6,9.2h0M19.3,2.7c0,0,.1.2.2.3l2.5,5.1c.1.3.2.6.2.9M19.3,2.7l-3.7,6.4M15.6,9.2h6.5c0,0,.1,0,.1-.1M8.4,9.2l-3.7-6.4" style="fill: none; stroke: #000; stroke-linecap: round; stroke-linejoin: round; stroke-width: 2px;"/>
</svg>