<?xml version="1.0" encoding="UTF-8"?>
<svg id="Layer_2" xmlns="http://www.w3.org/2000/svg" version="1.1" viewBox="0 0 24 24">
  <!-- Generator: Adobe Illustrator 29.8.2, SVG Export Plug-In . SVG Version: 2.1.1 Build 3)  -->
  <path d="M11.9,2h-6.1c-.6,0-1.2.3-1.5.8M11.9,2h6.1c.6,0,1.2.3,1.5.8M11.9,2l-3.7,7.2M11.9,2l3.7,7.2M1.5,8.1l2.7-5.1c0,0,.1-.2.2-.3M1.5,8.1c-.4.7-.3,1.5.2,2.1l10.2,11.9M1.5,8.1c-.3.6.3,1.1.9,1.1h5.8M11.9,22.1l10.2-11.9c.3-.3.4-.7.4-1.1M11.9,22.1l-3.7-12.9M11.9,22.1l3.7-12.9M8.2,9.2h0M8.2,9.2h0M8.2,9.2h0M8.2,9.2h7.5M15.6,9.2h0M15.6,9.2h0M15.6,9.2h0M19.5,2.7c0,0,.1.2.2.3l2.7,5.1c.2.3.2.6.2.9M19.5,2.7l-3.9,6.4M15.6,9.2h6.7c0,0,.1,0,.1-.1M8.2,9.2l-3.9-6.4" style="fill: none; stroke: #000; stroke-linecap: round; stroke-linejoin: round; stroke-width: 2px;"/>
</svg>