<?xml version="1.0" encoding="UTF-8"?>
<svg width="24px" height="24px" viewBox="0 0 24 24" version="1.1" xmlns="http://www.w3.org/2000/svg" xmlns:xlink="http://www.w3.org/1999/xlink">
    <!-- Generator: Sketch 47.1 (45422) - http://www.bohemiancoding.com/sketch -->
    <title>export</title>
    <desc>Created with Sketch.</desc>
    <defs></defs>
    <g id="Symbols" stroke="none" stroke-width="1" fill="none" fill-rule="evenodd" stroke-linecap="round" stroke-linejoin="round">
        <g id="export" stroke="#000000" stroke-width="2">
            <g transform="translate(1.000000, 3.000000)">
                <path d="M14,13.0315274 L14,16 L14,16 C14,17.1045695 13.1045695,18 12,18 L2,18 L2,18 C0.8954305,18 1.3527075e-16,17.1045695 0,16 L0,2 L0,2 C-1.3527075e-16,0.8954305 0.8954305,2.02906125e-16 2,0 L2,0 L12,0 L12,1.33226763e-15 C13.1045695,1.1293615e-15 14,0.8954305 14,2 L14,5" id="Rectangle-path"></path>
                <polyline id="Shape" points="18 13 22 9 18 5"></polyline>
                <path d="M22,9 L10,9" id="Shape"></path>
            </g>
        </g>
    </g>
</svg>