<?xml version="1.0" encoding="utf-8"?>
<!-- Generator: Adobe Illustrator 22.1.0, SVG Export Plug-In . SVG Version: 6.00 Build 0)  -->
<svg version="1.1" id="Layer_1" xmlns="http://www.w3.org/2000/svg" xmlns:xlink="http://www.w3.org/1999/xlink" x="0px" y="0px"
	 viewBox="0 0 24 24" fill="none" stroke="#000000" stroke-width="2" stroke-linecap="round" stroke-linejoin="round" stroke-miterlimit="10" xml:space="preserve">
<path d="M14,2H6C4.9,2,4,2.9,4,4v16c0,1.1,0.9,2,2,2h12c1.1,0,2-0.9,2-2V8L14,2z"/>
<polyline points="14,2 14,8 20,8 "/>
<path d="M12,14.3l-1.8,4c-0.3,0.6-1.2,0.6-1.4-0.1l-2-6c-0.1-0.4,0.1-0.8,0.5-0.9c0.4-0.1,0.8,0.1,0.9,0.5l1.4,4.2l1.7-3.8
	c0.3-0.6,1.1-0.6,1.4,0l1.7,3.8l1.4-4.2c0.1-0.4,0.6-0.6,0.9-0.5c0.4,0.1,0.6,0.6,0.5,0.9l-2,6c-0.2,0.6-1.1,0.7-1.4,0.1L12,14.3z"
	fill="#000000" stroke="none"/>
</svg>
