<?xml version="1.0" standalone="no"?>
<!DOCTYPE svg PUBLIC "-//W3C//DTD SVG 20010904//EN"
 "http://www.w3.org/TR/2001/REC-SVG-20010904/DTD/svg10.dtd">
<svg version="1.0" xmlns="http://www.w3.org/2000/svg"
 width="300.000000pt" height="300.000000pt" viewBox="0 0 300.000000 300.000000"
 preserveAspectRatio="xMidYMid meet">

<g transform="translate(0.000000,300.000000) scale(0.100000,-0.100000)"
fill="#000000" stroke="none">
<path d="M370 2125 l0 -125 1130 0 1130 0 0 125 0 125 -1130 0 -1130 0 0 -125z"/>
<path d="M750 1500 l0 -130 750 0 750 0 0 130 0 130 -750 0 -750 0 0 -130z"/>
<path d="M1250 875 l0 -125 250 0 250 0 0 125 0 125 -250 0 -250 0 0 -125z"/>
</g>
</svg>
