<?xml version="1.0" encoding="UTF-8"?>
<svg width="24px" height="24px" viewBox="0 0 24 24" version="1.1" xmlns="http://www.w3.org/2000/svg" xmlns:xlink="http://www.w3.org/1999/xlink">
    <!-- Generator: Sketch 47.1 (45422) - http://www.bohemiancoding.com/sketch -->
    <title>folder-open</title>
    <desc>Created with Sketch.</desc>
    <defs></defs>
    <g id="Symbols" stroke="none" stroke-width="1" fill="none" fill-rule="evenodd" stroke-linecap="round" stroke-linejoin="round">
        <g id="folder-open" stroke="#000000" stroke-width="2">
            <g transform="translate(1.000000, 3.000000)">
                <path d="M18,18 L2,18 C0.8954305,18 0,17.1045695 0,16 L0,2 C-2.22044605e-16,0.8954305 0.8954305,0 2,0 L7,0 L9,3 L17,3 C18.1045695,3 19,3.8954305 19,5 C19,5.91248213 19,6.5791488 19,7" id="Shape"></path>
                <path d="M4,14 L5,8.5 C5.17290571,7.54901861 6.03342771,7 7,7 L20.0035685,7 C21.108138,7 22.0035685,7.8954305 22.0035685,9 C22.0035685,9.1199832 21.9927715,9.23972302 21.9713083,9.35777088 L20.698581,16.3577709 C20.5256753,17.3087523 19.6974135,18 18.7308412,18 L17,18" id="Rectangle-15"></path>
            </g>
        </g>
    </g>
</svg>