<?xml version="1.0" encoding="UTF-8"?>
<svg width="24px" height="24px" viewBox="0 0 24 24" version="1.1" xmlns="http://www.w3.org/2000/svg" xmlns:xlink="http://www.w3.org/1999/xlink">
    <!-- Generator: Sketch 62 (91390) - https://sketch.com -->
    <title>Artboard</title>
    <desc>Created with Sketch.</desc>
    <g id="Artboard" stroke="none" stroke-width="1" fill="none" fill-rule="evenodd">
        <g id="Group-54">
            <g id="export-01-copy-3" transform="translate(12.500000, 12.000000) scale(-1, 1) translate(-12.500000, -12.000000) translate(3.000000, 3.000000)" stroke="#000000" stroke-linecap="round" stroke-linejoin="round" stroke-width="2">
                <g id="square-copy">
                    <path d="M14,13.0315274 L14,16 C14,17.1045695 13.1045695,18 12,18 L2,18 C0.8954305,18 0,17.1045695 0,16 L0,2 C0,0.8954305 0.8954305,0 2,0 L12,0 C13.1045695,0 14,0.8954305 14,2 L14,5" id="Rectangle-path"></path>
                </g>
                <g id="export" transform="translate(13.000000, 9.000000) scale(-1, 1) translate(-13.000000, -9.000000) translate(7.000000, 6.000000)">
                    <g id="Group-9">
                        <polyline id="Shape" points="9 6 12 3 9 0"></polyline>
                        <line x1="12" y1="3" x2="0" y2="3" id="Shape"></line>
                    </g>
                </g>
            </g>
        </g>
    </g>
</svg>
