<?xml version="1.0" encoding="UTF-8"?>
<svg width="24px" height="24px" viewBox="0 0 24 24" version="1.1" xmlns="http://www.w3.org/2000/svg" xmlns:xlink="http://www.w3.org/1999/xlink">
    <!-- Generator: Sketch 47.1 (45422) - http://www.bohemiancoding.com/sketch -->
    <title>list-number</title>
    <desc>Created with Sketch.</desc>
    <defs></defs>
    <g id="Symbols" stroke="#000000" stroke-width="2"  stroke-linecap="round" stroke-linejoin="round" fill="none" fill-rule="evenodd">
        <g id="list-number">
            <g transform="translate(1.000000, 3.000000)">
                <path d="M8,3 L20,3" id="Shape"></path>
                <path d="M8,9 L20,9" id="Shape"></path>
                <path d="M8,15 L20,15" id="Shape"></path>
                <path d="M3.24993912,4.00592772 L3.24993912,1.14716408 C3.24993912,0.938330762 3.13101412,0.747726257 2.94343912,0.655927723 C2.75572437,0.564060801 2.53215036,0.586604287 2.36655409,0.714096377 L1.20547062,1.60801121 C0.975670088,1.78493398 0.932076233,2.11431507 1.10793912,2.34492772 C1.28377041,2.57549895 1.61293331,2.62050354 1.84420384,2.44559306 L2.13993912,2.22192772 L2.13993912,4.00592772 L1.63693912,4.00592772 C1.36079674,4.00592772 1.13693912,4.22978535 1.13693912,4.50592772 C1.13693912,4.7820701 1.36079674,5.00592772 1.63693912,5.00592772 L3.63693912,5.00592772 C3.91308149,5.00592772 4.13693912,4.7820701 4.13693912,4.50592772 C4.13693912,4.22978535 3.91308149,4.00592772 3.63693912,4.00592772 L3.24993912,4.00592772 Z" id="Combined-Shape" fill="#000000" stroke-width="0"></path>
                <path d="M4.138,8.15 C4.138,8.26600058 4.12600012,8.37799946 4.102,8.486 C4.07799988,8.59400054 4.03700029,8.69899949 3.979,8.801 C3.92099971,8.90300051 3.84500047,9.0039995 3.751,9.104 C3.65699953,9.2040005 3.54200068,9.3039995 3.406,9.404 L2.566,10.04 L3.754,10.04 L3.754,10.04 C4.01909668,10.04 4.234,10.2549033 4.234,10.52 L4.234,10.52 L4.234,10.52 C4.234,10.7850967 4.01909668,11 3.754,11 L1.336,11 L1.336,11 C1.07090332,11 0.856,10.7850967 0.856,10.52 L0.856,10.52 L0.856,10.52 C0.856,10.2183157 0.999927836,9.93473239 1.24343284,9.75663488 L2.71,8.684 C2.8500007,8.57999948 2.93799982,8.48500043 2.974,8.399 C3.01000018,8.31299957 3.028,8.2300004 3.028,8.15 C3.028,8.12199986 3.02300005,8.08300025 3.013,8.033 C3.00299995,7.98299975 2.98000018,7.93300025 2.944,7.883 C2.90799982,7.83299975 2.85700033,7.79000018 2.791,7.754 C2.72499967,7.71799982 2.63600056,7.7 2.524,7.7 C2.41199944,7.7 2.32100035,7.71899981 2.251,7.757 C2.18099965,7.79500019 2.12700019,7.83799976 2.089,7.886 C2.05099981,7.93400024 2.02300009,7.98299975 2.005,8.033 C2.0046633,8.03393527 2.00432582,8.03490963 2.00398755,8.0359231 L2.00396446,8.03591539 C1.93158592,8.25276317 1.72860798,8.399 1.5,8.399 C1.5,8.399 1.5,8.399 1.5,8.399 C1.48493742,8.399 1.44081188,8.39261245 1.36762339,8.37983736 L1.36762594,8.37982275 C1.07615947,8.32894711 0.881122074,8.051424 0.931997713,7.75995754 C0.938636027,7.72192664 0.949365777,7.68472472 0.964,7.649 C0.964,7.649 0.964,7.649 0.964,7.649 C1.03200034,7.48299917 1.13499931,7.33200068 1.273,7.196 C1.41100069,7.05999932 1.58299897,6.95000042 1.789,6.866 C1.99500103,6.78199958 2.2379986,6.74 2.518,6.74 C2.78200132,6.74 3.01499899,6.77899961 3.217,6.857 C3.41900101,6.93500039 3.58799932,7.03899935 3.724,7.169 C3.86000068,7.29900065 3.96299965,7.44899915 4.033,7.619 C4.10300035,7.78900085 4.138,7.96599908 4.138,8.15 Z" id="2" fill="#000000" stroke-width="0"></path>
                <path d="M4.159,13.35 L4.159,13.35 L4.159,13.35 C4.22359142,13.5653047 4.16380627,13.7986756 4.00365078,13.9564045 L3.208,14.74 C3.52000156,14.8200004 3.77399902,14.9549991 3.97,15.145 C4.16600098,15.3350009 4.264,15.5859984 4.264,15.898 C4.264,16.3500023 4.10800156,16.6899989 3.796,16.918 C3.48399844,17.1460011 3.0480028,17.26 2.488,17.26 C2.19999856,17.26 1.94500111,17.2260003 1.723,17.158 C1.50099889,17.0899997 1.31400076,17.0000006 1.162,16.888 C1.11444108,16.8529566 1.06717596,16.7911872 1.02020465,16.7026918 L1.02022062,16.7026833 C0.907540951,16.4903913 0.977656754,16.2271254 1.181,16.099 L1.181,16.099 L1.181,16.099 C1.37639398,15.9758834 1.62359554,15.9699434 1.82467731,16.0835332 C1.98411135,16.1735904 2.08221806,16.2267475 2.119,16.243 C2.20500043,16.2810002 2.3279992,16.3 2.488,16.3 C2.68000096,16.3 2.83899937,16.2680003 2.965,16.204 C3.09100063,16.1399997 3.154,16.0380007 3.154,15.898 C3.154,15.7579993 3.09100063,15.6560003 2.965,15.592 C2.83899937,15.5279997 2.68000096,15.496 2.488,15.496 L2.42140984,15.496 L2.42140984,15.496 C2.16909477,15.496 1.94442553,15.3362986 1.8615,15.098 L1.8615,15.098 L1.8615,15.098 C1.77798859,14.8580178 1.85026053,14.5913809 2.04353162,14.4264205 L2.59,13.96 L1.342,13.96 L1.342,13.96 C1.07690332,13.96 0.862,13.7450967 0.862,13.48 L0.862,13.48 L0.862,13.48 C0.862,13.2149033 1.07690332,13 1.342,13 L3.68858927,13 L3.68858927,13 C3.90547332,13 4.09667883,13.1422628 4.159,13.35 Z" id="3" fill="#000000" stroke-width="0"></path>
            </g>
        </g>
    </g>
</svg>
