<?xml version="1.0" encoding="UTF-8"?>
<svg width="24px" height="24px" viewBox="0 0 24 24" version="1.1" xmlns="http://www.w3.org/2000/svg" xmlns:xlink="http://www.w3.org/1999/xlink">
    <!-- Generator: Sketch 47.1 (45422) - http://www.bohemiancoding.com/sketch -->
    <title>module-360</title>
    <desc>Created with Sketch.</desc>
    <defs></defs>
    <g id="Symbols" stroke="none" stroke-width="1" fill="none" fill-rule="evenodd" stroke-linecap="round" stroke-linejoin="round">
        <g id="module-360" stroke="#000000" stroke-width="2">
            <g transform="translate(1.000000, 3.000000)">
                <path d="M15,18 L15,16 C15,13.791 13.209,12 11,12 L4,12 C1.791,12 0,13.791 0,16 L0,18" id="Stroke-1"></path>
                <path d="M22,18 L22,16 C22,13.791 20.209,12 18,12 L17,12" id="Stroke-1-Copy"></path>
                <path d="M13.8465822,0.0531152099 C14.0592112,0.0181728486 14.2774849,0 14.5,0 C16.709,0 18.5,1.791 18.5,4 C18.5,6.209 16.709,8 14.5,8 C14.2882791,8 14.0803981,7.98354752 13.8775658,7.95185141" id="Stroke-3-Copy"></path>
                <path d="M7.5,0 C9.709,0 11.5,1.791 11.5,4 C11.5,6.209 9.709,8 7.5,8 C5.291,8 3.5,6.209 3.5,4 C3.5,1.791 5.291,0 7.5,0 Z" id="Stroke-3"></path>
                <path d="M22,18 L22,16 C21.999,14.177 20.765,12.586 19,12.13" id="Stroke-5"></path>
            </g>
        </g>
    </g>
</svg>