<?xml version="1.0" encoding="UTF-8"?>
<svg width="24px" height="24px" viewBox="0 0 24 24" version="1.1" xmlns="http://www.w3.org/2000/svg" xmlns:xlink="http://www.w3.org/1999/xlink">
    <!-- Generator: Sketch 47.1 (45422) - http://www.bohemiancoding.com/sketch -->
    <title>module-1on1</title>
    <desc>Created with Sketch.</desc>
    <defs></defs>
    <g id="Symbols" stroke="none" stroke-width="1" fill="none" fill-rule="evenodd" stroke-linecap="round" stroke-linejoin="round">
        <g id="module-1on1" stroke="#000000" stroke-width="2">
            <g transform="translate(1.000000, 3.000000)">
                <path d="M17.0002,6.5 C17.0002,10.09 14.0902,13 10.5002,13 L7.5002,13 C6.4342,13 5.4272,12.743 4.5392,12.288 L0.0002,14 L1.6752,9.389 C1.2432,8.519 1.0002,7.538 1.0002,6.5 C1.0002,2.91 3.9102,0 7.5002,0 L10.5002,0 C14.0902,0 17.0002,2.91 17.0002,6.5 Z" id="Stroke-1"></path>
                <path d="M16.6359,4.3589 C19.1769,5.2429 20.9999,7.6579 20.9999,10.4999 C20.9999,11.5379 20.7569,12.5189 20.3239,13.3889 L21.9999,17.9999 L17.4609,16.2879 C16.5729,16.7429 15.5669,16.9999 14.4999,16.9999 L11.4999,16.9999 C8.6599,16.9999 6.2459,15.1789 5.3609,12.6409" id="Stroke-3"></path>
            </g>
        </g>
    </g>
</svg>