<?xml version="1.0" encoding="UTF-8"?>
<svg width="24px" height="24px" viewBox="0 0 24 24" version="1.1" xmlns="http://www.w3.org/2000/svg" xmlns:xlink="http://www.w3.org/1999/xlink">
    <!-- Generator: Sketch 47.1 (45422) - http://www.bohemiancoding.com/sketch -->
    <title>nudge-right</title>
    <desc>Created with Sketch.</desc>
    <defs></defs>
    <g id="Symbols" stroke="none" stroke-width="1" fill="none" fill-rule="evenodd" stroke-linecap="round" stroke-linejoin="round">
        <g id="nudge-right" stroke="#000000" stroke-width="2">
            <g transform="translate(1.000000, 3.000000)">
                <path d="M19.5,5 L12,5 L12,3 C12,1.34314575 10.6568542,7.4940594e-16 9,0 L5,7 L5,18 L13.28,18 C14.2772867,18.0112744 15.1304612,17.2860761 15.28,16.3 L16.246,10 L19.5,10 C20.8807119,10 22,8.88071187 22,7.5 C22,6.11928813 20.8807119,5 19.5,5 Z" id="Combined-Shape"></path>
                <path d="M5,18 L2,18 C0.8954305,18 0,17.1045695 0,16 L0,9 C-2.22044605e-16,7.8954305 0.8954305,7 2,7 L5,7 L5,18 Z" id="Path"></path>
            </g>
        </g>
    </g>
</svg>