<?xml version="1.0" encoding="UTF-8"?>
<svg width="24px" height="24px" viewBox="0 0 24 24" version="1.1" xmlns="http://www.w3.org/2000/svg" xmlns:xlink="http://www.w3.org/1999/xlink">
    <!-- Generator: Sketch 47.1 (45422) - http://www.bohemiancoding.com/sketch -->
    <title>nudge-left</title>
    <desc>Created with Sketch.</desc>
    <defs></defs>
    <g id="Symbols" stroke="none" stroke-width="1" fill="none" fill-rule="evenodd" stroke-linecap="round" stroke-linejoin="round">
        <g id="nudge-left" stroke="#000000" stroke-width="2">
            <g transform="translate(1.000000, 3.000000)">
                <path d="M2.5,5 L10,5 L10,3 C10,1.34314575 11.3431458,7.4940594e-16 13,0 L17,7 L17,18 L8.72,18 C7.72271325,18.0112744 6.86953884,17.2860761 6.72,16.3 L5.754,10 L2.5,10 C1.11928813,10 0,8.88071187 0,7.5 C0,6.11928813 1.11928813,5 2.5,5 Z" id="Combined-Shape"></path>
                <path d="M17,18 L20,18 C21.1045695,18 22,17.1045695 22,16 L22,9 C22,7.8954305 21.1045695,7 20,7 L17,7 L17,18 Z" id="Path"></path>
            </g>
        </g>
    </g>
</svg>