<?xml version="1.0" encoding="UTF-8"?>
<svg id="Layer_1" xmlns="http://www.w3.org/2000/svg" xmlns:xlink="http://www.w3.org/1999/xlink" version="1.1" viewBox="0 0 25.3 17.3">
  <!-- Generator: Adobe Illustrator 30.6.0, SVG Export Plug-In . SVG Version: 2.1.4 Build 109)  -->
  <defs>
    <clipPath id="clippath">
      <polygon points="16.1 4 18.6 5.6 25.3 5.6 25.3 17.3 0 17.3 0 4.1 16.1 4" style="fill: none;"/>
    </clipPath>
  </defs>
  <g id="Layer_2">
    <g style="clip-path: url(#clippath);">
      <path d="M1.6,11.7s2.5-1.7,4-3,3.5-3.1,4.1-3.9c-1,2-.9,3,1.1,4.9,3.6,3.4,1.4,6.7-.9,6.3-2-.3-2.2-2.6-1.1-4,.7-.9,4.9-5.4,8.7-7.3-.5,1.8-1.9,7.7,1.2,8.6,2.1.6,4.1-2.2,4.8-3.5" style="fill: none; stroke: #000; stroke-linejoin: bevel; stroke-width: 2px;"/>
    </g>
  </g>
  <circle cx="18.5" cy="1.6" r=".6" style="stroke: #000; stroke-miterlimit: 10; stroke-width: 2px;"/>
</svg>