<?xml version="1.0" encoding="UTF-8"?>
<svg id="Layer_1" xmlns="http://www.w3.org/2000/svg" xmlns:xlink="http://www.w3.org/1999/xlink" viewBox="0 0 24 24">
  <defs>
    <clipPath id="clippath">
      <polygon points="15.45 7.35 17.95 8.95 24.65 8.95 24.65 20.65 -.65 20.65 -.65 7.45 15.45 7.35" style="fill: none;"/>
    </clipPath>
  </defs>
  <g id="Layer_2" data-name="Layer 2">
    <g style="clip-path: url(#clippath);">
      <path d="M.95,15.05s2.5-1.7,4-3,3.5-3.1,4.1-3.9c-1,2-.9,3,1.1,4.9,3.6,3.4,1.4,6.7-.9,6.3-2-.3-2.2-2.6-1.1-4,.7-.9,4.9-5.4,8.7-7.3-.5,1.8-1.9,7.7,1.2,8.6,2.1.6,4.1-2.2,4.8-3.5" style="stroke: #000; stroke-linejoin: bevel; stroke-width: 2px;"/>
    </g>
  </g>
  <circle cx="17.85" cy="4.95" r=".6" style="stroke: #000; stroke-miterlimit: 10; stroke-width: 2px;"/>
</svg>