<svg xmlns="http://www.w3.org/2000/svg" fill="none" viewBox="0 0 24 24">
  <path d="M8.782 8.603 9.819 5.49c.218-.655 1.144-.655 1.362 0l1.037 3.112a5.027 5.027 0 0 0 3.18 3.179l3.111 1.037c.655.218.655 1.144 0 1.362l-3.112 1.037a5.027 5.027 0 0 0-3.179 3.18l-1.037 3.111c-.218.655-1.144.655-1.362 0l-1.037-3.112a5.027 5.027 0 0 0-3.18-3.179l-3.111-1.037c-.655-.218-.655-1.144 0-1.362l3.112-1.037a5.026 5.026 0 0 0 3.179-3.18ZM17.191 3.695l.488-1.464a.338.338 0 0 1 .642 0l.488 1.464c.235.707.79 1.26 1.496 1.496l1.464.488a.338.338 0 0 1 0 .642l-1.464.488c-.707.235-1.26.79-1.496 1.496l-.488 1.464a.338.338 0 0 1-.642 0l-.488-1.464a2.365 2.365 0 0 0-1.496-1.496l-1.464-.488a.338.338 0 0 1 0-.642l1.464-.488a2.365 2.365 0 0 0 1.496-1.496Z"/>
</svg>