<?xml version="1.0" encoding="UTF-8"?>
<svg width="24px" height="24px" viewBox="0 0 24 24" version="1.1" xmlns="http://www.w3.org/2000/svg" xmlns:xlink="http://www.w3.org/1999/xlink">
    <!-- Generator: Sketch 47.1 (45422) - http://www.bohemiancoding.com/sketch -->
    <title>unarchive</title>
    <desc>Created with Sketch.</desc>
    <defs></defs>
    <g id="Symbols" stroke="none" stroke-width="1" fill="none" fill-rule="evenodd" stroke-linecap="round" stroke-linejoin="round">
        <g id="unarchive" stroke="#000000" stroke-width="2">
            <g transform="translate(3.000000, 2.000000)">
                <path d="M18,6.00000035 L18,18 C18,19.1045695 17.1045695,20 16,20 L2,20 C0.8954305,20 1.3527075e-16,19.1045695 0,18 L0,6 L0,4.66666667 L-1.33226763e-15,4.66666667 C-1.38526305e-15,4.23392624 0.140355744,3.81285901 0.4,3.46666667 L2.4,0.8 L2.4,0.8 C2.77770876,0.296388315 3.37048539,-1.21662767e-15 4,-1.33226763e-15 L4,0 L14,0 L14,-2.44249065e-15 C14.6295146,-2.55813061e-15 15.2222912,0.296388315 15.6,0.8 L17.6,3.46666667 L17.6,3.46666667 C17.8596443,3.81285901 18,4.23392624 18,4.66666667 L18,6 Z" id="Combined-Shape"></path>
                <path d="M9,16 L9,8" id="Shape"></path>
                <polyline id="Shape" transform="translate(9.000000, 10.000000) scale(1, -1) translate(-9.000000, -10.000000) " points="13 8 9 12 5 8"></polyline>
                <path d="M1,4 L17,4" id="Line-5"></path>
            </g>
        </g>
    </g>
</svg>
