<?xml version="1.0" encoding="utf-8"?>
<!-- Generator: Adobe Illustrator 22.1.0, SVG Export Plug-In . SVG Version: 6.00 Build 0)  -->
<svg version="1.1" id="Layer_1" xmlns="http://www.w3.org/2000/svg" xmlns:xlink="http://www.w3.org/1999/xlink" x="0px" y="0px"
	 viewBox="0 0 24 24" style="enable-background:new 0 0 24 24;" xml:space="preserve">
<line x1="1" y1="1" x2="23" y2="23"/>
<path d="M18.5,12.5l2-2c1.9-2,1.9-5.1-0.1-7s-5-2-7-0.1L12,5 M9,14c0.9,1.2,2.2,1.9,3.6,2c1,0.1,1.9-0.1,2.7-0.6"/>
<path d="M9,9.1c-1,0.2-1.9,0.7-2.6,1.4l-3,3c-1.9,2-1.9,5.1,0.1,7c1.9,1.9,5,2,7,0.1l1-1"/>
</svg>
